<svg width="43" height="43" viewBox="0 0 43 43" fill="none" xmlns="http://www.w3.org/2000/svg">
<circle cx="21.5" cy="21.5" r="21.5" fill="white"/>
<rect x="9" y="10" width="26" height="23" rx="4" fill="#91CAD6"/>
<path d="M11 15C11 13.3431 12.3431 12 14 12H30C31.6569 12 33 13.3431 33 15V19H11V15Z" fill="white"/>
<circle cx="15.6875" cy="22.6875" r="1.6875" fill="white"/>
<circle cx="15.6875" cy="22.6875" r="1.6875" fill="white"/>
<circle cx="15.6875" cy="22.6875" r="1.6875" fill="white"/>
<circle cx="22.4375" cy="22.6875" r="1.6875" fill="white"/>
<circle cx="22.4375" cy="22.6875" r="1.6875" fill="white"/>
<circle cx="22.4375" cy="22.6875" r="1.6875" fill="white"/>
<circle cx="29.1875" cy="22.6875" r="1.6875" fill="white"/>
<circle cx="29.1875" cy="22.6875" r="1.6875" fill="white"/>
<circle cx="29.1875" cy="22.6875" r="1.6875" fill="white"/>
<circle cx="15.6875" cy="28.3125" r="1.6875" fill="white"/>
<circle cx="15.6875" cy="28.3125" r="1.6875" fill="white"/>
<circle cx="15.6875" cy="28.3125" r="1.6875" fill="white"/>
<circle cx="22.4375" cy="28.3125" r="1.6875" fill="white"/>
<circle cx="22.4375" cy="28.3125" r="1.6875" fill="white"/>
<circle cx="22.4375" cy="28.3125" r="1.6875" fill="white"/>
<circle cx="29.1875" cy="28.3125" r="1.6875" fill="white"/>
<circle cx="29.1875" cy="28.3125" r="1.6875" fill="white"/>
<circle cx="29.1875" cy="28.3125" r="1.6875" fill="white"/>
<path d="M14 9C14 8.44772 14.4477 8 15 8H16C16.5523 8 17 8.44772 17 9V11H14V9Z" fill="#91CAD6"/>
<path d="M27 9C27 8.44772 27.4477 8 28 8H29C29.5523 8 30 8.44772 30 9V11H27V9Z" fill="#91CAD6"/>
</svg>
