<svg width="141" height="102" viewBox="0 0 141 102" fill="none" xmlns="http://www.w3.org/2000/svg">
<path d="M39.1719 48.0625L36.1094 50.9844C34.026 48.7865 31.6823 47.6875 29.0781 47.6875C26.8802 47.6875 25.026 48.4375 23.5156 49.9375C22.0156 51.4375 21.2656 53.2865 21.2656 55.4844C21.2656 57.0156 21.599 58.375 22.2656 59.5625C22.9323 60.75 23.875 61.6823 25.0938 62.3594C26.3125 63.0365 27.6667 63.375 29.1562 63.375C30.4271 63.375 31.5885 63.1406 32.6406 62.6719C33.6927 62.1927 34.849 61.3281 36.1094 60.0781L39.0781 63.1719C37.3802 64.8281 35.776 65.9792 34.2656 66.625C32.7552 67.2604 31.0312 67.5781 29.0938 67.5781C25.5208 67.5781 22.5938 66.4479 20.3125 64.1875C18.0417 61.9167 16.9062 59.0104 16.9062 55.4688C16.9062 53.1771 17.4219 51.1406 18.4531 49.3594C19.4948 47.5781 20.9792 46.1458 22.9062 45.0625C24.8438 43.9792 26.9271 43.4375 29.1562 43.4375C31.0521 43.4375 32.875 43.8385 34.625 44.6406C36.3854 45.4427 37.901 46.5833 39.1719 48.0625ZM42.6187 43C43.3687 43 44.0094 43.2708 44.5406 43.8125C45.0823 44.3542 45.3531 45.0104 45.3531 45.7812C45.3531 46.5417 45.0875 47.1927 44.5562 47.7344C44.025 48.2656 43.3896 48.5312 42.65 48.5312C41.8896 48.5312 41.2385 48.2604 40.6969 47.7188C40.1656 47.1667 39.9 46.5 39.9 45.7188C39.9 44.9688 40.1656 44.3281 40.6969 43.7969C41.2281 43.2656 41.8687 43 42.6187 43ZM40.4781 50H44.7594V67H40.4781V50ZM59.5969 43.4375H63.8469V67H59.5969V65.2031C58.7635 65.9948 57.925 66.5677 57.0812 66.9219C56.2479 67.2656 55.3417 67.4375 54.3625 67.4375C52.1646 67.4375 50.2635 66.5885 48.6594 64.8906C47.0552 63.1823 46.2531 61.0625 46.2531 58.5312C46.2531 55.9062 47.0292 53.7552 48.5812 52.0781C50.1333 50.401 52.0187 49.5625 54.2375 49.5625C55.2583 49.5625 56.2167 49.7552 57.1125 50.1406C58.0083 50.526 58.8365 51.1042 59.5969 51.875V43.4375ZM55.1125 53.5C53.7896 53.5 52.6906 53.9688 51.8156 54.9062C50.9406 55.8333 50.5031 57.026 50.5031 58.4844C50.5031 59.9531 50.9458 61.1615 51.8312 62.1094C52.7271 63.0573 53.826 63.5312 55.1281 63.5312C56.4719 63.5312 57.5865 63.0677 58.4719 62.1406C59.3573 61.2031 59.8 59.9792 59.8 58.4688C59.8 56.9896 59.3573 55.7917 58.4719 54.875C57.5865 53.9583 56.4667 53.5 55.1125 53.5ZM79.1219 50H83.3719V67H79.1219V65.2031C78.2885 65.9948 77.45 66.5677 76.6063 66.9219C75.7729 67.2656 74.8667 67.4375 73.8875 67.4375C71.6896 67.4375 69.7885 66.5885 68.1844 64.8906C66.5802 63.1823 65.7781 61.0625 65.7781 58.5312C65.7781 55.9062 66.5542 53.7552 68.1063 52.0781C69.6583 50.401 71.5438 49.5625 73.7625 49.5625C74.7833 49.5625 75.7417 49.7552 76.6375 50.1406C77.5333 50.526 78.3615 51.1042 79.1219 51.875V50ZM74.6375 53.5C73.3146 53.5 72.2156 53.9688 71.3406 54.9062C70.4656 55.8333 70.0281 57.026 70.0281 58.4844C70.0281 59.9531 70.4708 61.1615 71.3563 62.1094C72.2521 63.0573 73.351 63.5312 74.6531 63.5312C75.9969 63.5312 77.1115 63.0677 77.9969 62.1406C78.8823 61.2031 79.325 59.9792 79.325 58.4688C79.325 56.9896 78.8823 55.7917 77.9969 54.875C77.1115 53.9583 75.9917 53.5 74.6375 53.5ZM98.6469 43.4375H102.897V67H98.6469V65.2031C97.8135 65.9948 96.975 66.5677 96.1312 66.9219C95.2979 67.2656 94.3917 67.4375 93.4125 67.4375C91.2146 67.4375 89.3135 66.5885 87.7094 64.8906C86.1052 63.1823 85.3031 61.0625 85.3031 58.5312C85.3031 55.9062 86.0792 53.7552 87.6312 52.0781C89.1833 50.401 91.0687 49.5625 93.2875 49.5625C94.3083 49.5625 95.2667 49.7552 96.1625 50.1406C97.0583 50.526 97.8865 51.1042 98.6469 51.875V43.4375ZM94.1625 53.5C92.8396 53.5 91.7406 53.9688 90.8656 54.9062C89.9906 55.8333 89.5531 57.026 89.5531 58.4844C89.5531 59.9531 89.9958 61.1615 90.8812 62.1094C91.7771 63.0573 92.876 63.5312 94.1781 63.5312C95.5219 63.5312 96.6365 63.0677 97.5219 62.1406C98.4073 61.2031 98.85 59.9792 98.85 58.4688C98.85 56.9896 98.4073 55.7917 97.5219 54.875C96.6365 53.9583 95.5167 53.5 94.1625 53.5ZM118.172 50H122.422V67H118.172V65.2031C117.339 65.9948 116.5 66.5677 115.656 66.9219C114.823 67.2656 113.917 67.4375 112.938 67.4375C110.74 67.4375 108.839 66.5885 107.234 64.8906C105.63 63.1823 104.828 61.0625 104.828 58.5312C104.828 55.9062 105.604 53.7552 107.156 52.0781C108.708 50.401 110.594 49.5625 112.812 49.5625C113.833 49.5625 114.792 49.7552 115.688 50.1406C116.583 50.526 117.411 51.1042 118.172 51.875V50ZM113.688 53.5C112.365 53.5 111.266 53.9688 110.391 54.9062C109.516 55.8333 109.078 57.026 109.078 58.4844C109.078 59.9531 109.521 61.1615 110.406 62.1094C111.302 63.0573 112.401 63.5312 113.703 63.5312C115.047 63.5312 116.161 63.0677 117.047 62.1406C117.932 61.2031 118.375 59.9792 118.375 58.4688C118.375 56.9896 117.932 55.7917 117.047 54.875C116.161 53.9583 115.042 53.5 113.688 53.5ZM109.219 46.8281L107.5 44.25C108.833 43.2188 110.182 42.7031 111.547 42.7031C112.057 42.7031 112.932 42.8802 114.172 43.2344C115.016 43.4635 115.688 43.5781 116.188 43.5781C117.062 43.5781 117.969 43.3073 118.906 42.7656L120.531 45.2031C119.219 46.3281 117.948 46.8906 116.719 46.8906C116.062 46.8906 115.276 46.75 114.359 46.4688C113.609 46.25 113.135 46.1198 112.938 46.0781C112.667 46.0365 112.344 46.0156 111.969 46.0156C111.052 46.0156 110.135 46.2865 109.219 46.8281Z" fill="white"/>
<path d="M30.1328 16.3281L26.3047 19.9805C23.7005 17.2331 20.7708 15.8594 17.5156 15.8594C14.7682 15.8594 12.4505 16.7969 10.5625 18.6719C8.6875 20.5469 7.75 22.8581 7.75 25.6055C7.75 27.5195 8.16667 29.2188 9 30.7031C9.83333 32.1875 11.0117 33.3529 12.5352 34.1992C14.0586 35.0456 15.7513 35.4688 17.6133 35.4688C19.2018 35.4688 20.6536 35.1758 21.9688 34.5898C23.2839 33.9909 24.7292 32.9102 26.3047 31.3477L30.0156 35.2148C27.8932 37.2852 25.888 38.724 24 39.5312C22.112 40.3255 19.957 40.7227 17.5352 40.7227C13.069 40.7227 9.41016 39.3099 6.55859 36.4844C3.72005 33.6458 2.30078 30.013 2.30078 25.5859C2.30078 22.7214 2.94531 20.1758 4.23438 17.9492C5.53646 15.7227 7.39193 13.9323 9.80078 12.5781C12.2227 11.224 14.8268 10.5469 17.6133 10.5469C19.9831 10.5469 22.2617 11.0482 24.4492 12.0508C26.6497 13.0534 28.5443 14.4792 30.1328 16.3281ZM34.4414 10C35.3789 10 36.1797 10.3385 36.8438 11.0156C37.5208 11.6927 37.8594 12.513 37.8594 13.4766C37.8594 14.4271 37.5273 15.2409 36.8633 15.918C36.1992 16.582 35.4049 16.9141 34.4805 16.9141C33.5299 16.9141 32.7161 16.5755 32.0391 15.8984C31.375 15.2083 31.043 14.375 31.043 13.3984C31.043 12.4609 31.375 11.6602 32.0391 10.9961C32.7031 10.332 33.5039 10 34.4414 10ZM31.7656 18.75H37.1172V40H31.7656V18.75ZM61.25 30.918H44.1211C44.3685 32.4284 45.026 33.6328 46.0938 34.5312C47.1745 35.4167 48.5482 35.8594 50.2148 35.8594C52.207 35.8594 53.9193 35.1628 55.3516 33.7695L59.8438 35.8789C58.724 37.4674 57.3828 38.6458 55.8203 39.4141C54.2578 40.1693 52.4023 40.5469 50.2539 40.5469C46.9206 40.5469 44.2057 39.4987 42.1094 37.4023C40.013 35.293 38.9648 32.6562 38.9648 29.4922C38.9648 26.25 40.0065 23.5612 42.0898 21.4258C44.1862 19.2773 46.8099 18.2031 49.9609 18.2031C53.3073 18.2031 56.0286 19.2773 58.125 21.4258C60.2214 23.5612 61.2695 26.3867 61.2695 29.9023L61.25 30.918ZM55.8984 26.7188C55.5469 25.5339 54.8503 24.5703 53.8086 23.8281C52.7799 23.0859 51.582 22.7148 50.2148 22.7148C48.7305 22.7148 47.4284 23.1315 46.3086 23.9648C45.6055 24.4857 44.9544 25.4036 44.3555 26.7188H55.8984ZM42.0898 14.8633L47.9492 9.33594H52.2266L58.0469 14.8633H52.2266L50.1172 12.3047L47.9492 14.8633H42.0898ZM63.5859 18.75H68.8984V20.918C70.1094 19.9023 71.2031 19.1992 72.1797 18.8086C73.1693 18.4049 74.1784 18.2031 75.207 18.2031C77.3164 18.2031 79.1068 18.9388 80.5781 20.4102C81.8151 21.6602 82.4336 23.5091 82.4336 25.957V40H77.1602V30.6836C77.1602 28.1445 77.043 26.4583 76.8086 25.625C76.5872 24.7917 76.1901 24.1602 75.6172 23.7305C75.0573 23.2878 74.3607 23.0664 73.5273 23.0664C72.4466 23.0664 71.5156 23.431 70.7344 24.1602C69.9661 24.8763 69.4323 25.8724 69.1328 27.1484C68.9766 27.8125 68.8984 29.2513 68.8984 31.4648V40H63.5859V18.75ZM106.41 23.0469L101.977 25.4883C101.143 24.6159 100.316 24.0104 99.4961 23.6719C98.6888 23.3333 97.7383 23.1641 96.6445 23.1641C94.6523 23.1641 93.0378 23.763 91.8008 24.9609C90.5768 26.1458 89.9648 27.6693 89.9648 29.5312C89.9648 31.3411 90.5573 32.819 91.7422 33.9648C92.9271 35.1107 94.4831 35.6836 96.4102 35.6836C98.793 35.6836 100.648 34.8698 101.977 33.2422L106.176 36.1133C103.897 39.069 100.681 40.5469 96.5273 40.5469C92.7904 40.5469 89.8607 39.4401 87.7383 37.2266C85.6289 35.013 84.5742 32.4219 84.5742 29.4531C84.5742 27.3958 85.0885 25.5013 86.1172 23.7695C87.1458 22.0378 88.5781 20.6771 90.4141 19.6875C92.263 18.6979 94.3268 18.2031 96.6055 18.2031C98.7148 18.2031 100.609 18.6263 102.289 19.4727C103.969 20.306 105.342 21.4974 106.41 23.0469ZM111.324 10C112.262 10 113.062 10.3385 113.727 11.0156C114.404 11.6927 114.742 12.513 114.742 13.4766C114.742 14.4271 114.41 15.2409 113.746 15.918C113.082 16.582 112.288 16.9141 111.363 16.9141C110.413 16.9141 109.599 16.5755 108.922 15.8984C108.258 15.2083 107.926 14.375 107.926 13.3984C107.926 12.4609 108.258 11.6602 108.922 10.9961C109.586 10.332 110.387 10 111.324 10ZM108.648 18.75H114V40H108.648V18.75ZM132.547 18.75H137.859V40H132.547V37.7539C131.505 38.7435 130.457 39.4596 129.402 39.9023C128.361 40.332 127.228 40.5469 126.004 40.5469C123.257 40.5469 120.88 39.4857 118.875 37.3633C116.87 35.2279 115.867 32.5781 115.867 29.4141C115.867 26.1328 116.837 23.444 118.777 21.3477C120.717 19.2513 123.074 18.2031 125.848 18.2031C127.124 18.2031 128.322 18.444 129.441 18.9258C130.561 19.4076 131.596 20.1302 132.547 21.0938V18.75ZM126.941 23.125C125.288 23.125 123.914 23.7109 122.82 24.8828C121.727 26.0417 121.18 27.5326 121.18 29.3555C121.18 31.1914 121.733 32.7018 122.84 33.8867C123.96 35.0716 125.333 35.6641 126.961 35.6641C128.641 35.6641 130.034 35.0846 131.141 33.9258C132.247 32.7539 132.801 31.224 132.801 29.3359C132.801 27.487 132.247 25.9896 131.141 24.8438C130.034 23.6979 128.634 23.125 126.941 23.125Z" fill="white"/>
<path d="M12.0563 73.9062C12.3583 73.9062 12.6083 74.026 12.8063 74.2656C13.5563 75.1719 14.1031 76.5677 14.4469 78.4531C15.8635 75.8906 17.6917 74.4479 19.9313 74.125C20.2854 74.0729 20.6344 74.0469 20.9781 74.0469C22.2281 74.0469 23.3323 74.3333 24.2906 74.9062C25.249 75.4792 26.0354 76.2344 26.65 77.1719C27.2646 78.1094 27.6813 79.1198 27.9 80.2031C28.0458 80.901 28.1188 81.6146 28.1188 82.3438C28.1188 84.6458 27.3844 87.0781 25.9156 89.6406C25.7281 89.9635 25.4417 90.125 25.0563 90.125C24.7333 90.125 24.4417 89.974 24.1813 89.6719C23.9313 89.3594 23.9208 89.0104 24.15 88.625C25.4417 86.375 26.0875 84.276 26.0875 82.3281C26.0875 81.7448 26.0302 81.1771 25.9156 80.625C25.749 79.8229 25.4417 79.0781 24.9938 78.3906C24.5563 77.7031 23.9938 77.151 23.3063 76.7344C22.6292 76.3073 21.8479 76.0938 20.9625 76.0938C20.7229 76.0938 20.4781 76.1094 20.2281 76.1406C19.1969 76.2865 18.3167 76.7396 17.5875 77.5C16.8583 78.2604 16.2698 79.1823 15.8219 80.2656C15.3844 81.3385 15.0667 82.4323 14.8688 83.5469C14.8688 83.6823 14.8688 83.8177 14.8688 83.9531C14.8688 85.4531 14.7906 86.9635 14.6344 88.4844L14.5719 89.0938C14.5406 89.3854 14.426 89.6042 14.2281 89.75C14.0302 89.8854 13.8167 89.9531 13.5875 89.9531C13.3375 89.9531 13.1031 89.875 12.8844 89.7188C12.676 89.5625 12.5667 89.3281 12.5563 89.0156C12.5354 88.5469 12.525 88.0885 12.525 87.6406C12.525 86.1094 12.6292 84.6979 12.8375 83.4062C12.7958 81.0104 12.6083 79.2135 12.275 78.0156C11.9521 76.8281 11.6552 76.0677 11.3844 75.7344C11.1344 75.4219 11.0094 75.1458 11.0094 74.9062C11.0094 74.6042 11.1188 74.3646 11.3375 74.1875C11.5563 74 11.7958 73.9062 12.0563 73.9062ZM43.4875 79.1406C43.5188 79.2552 43.5344 79.375 43.5344 79.5C43.5344 79.7396 43.4875 80.0156 43.3938 80.3281C43.2375 81.974 43.1594 83.4427 43.1594 84.7344C43.1594 86.5365 43.3104 88 43.6125 89.125C43.6438 89.2292 43.6594 89.3281 43.6594 89.4219C43.6594 89.7135 43.5448 89.9427 43.3156 90.1094C43.0969 90.2865 42.8573 90.375 42.5969 90.375C42.399 90.375 42.2115 90.3177 42.0344 90.2031C41.8573 90.0885 41.7323 89.901 41.6594 89.6406C41.3365 88.4427 41.1646 86.9219 41.1438 85.0781C40.1542 86.6719 39.0917 87.9271 37.9563 88.8438C37.2688 89.3958 36.5604 89.7083 35.8313 89.7812C35.3938 89.9062 34.9667 89.9688 34.55 89.9688C33.9563 89.9688 33.4146 89.8594 32.925 89.6406C32.4354 89.4219 32.0135 89.1458 31.6594 88.8125C31.024 88.2188 30.5292 87.4531 30.175 86.5156C29.8313 85.5677 29.6594 84.474 29.6594 83.2344C29.6594 81.6406 30.0292 80.1198 30.7688 78.6719C31.8521 76.5469 33.4979 75.1302 35.7063 74.4219C36.55 74.1406 37.3625 74 38.1438 74C39.1229 74 40.0448 74.2292 40.9094 74.6875C42.4198 75.4896 43.2792 76.974 43.4875 79.1406ZM41.4563 79.2812C41.3625 78.2812 41.0344 77.4896 40.4719 76.9062C39.9198 76.3229 39.1646 76.0312 38.2063 76.0312C37.6333 76.0312 37.0083 76.1406 36.3313 76.3594C34.6542 76.8906 33.4302 77.9167 32.6594 79.4375C32.0135 80.7188 31.6906 81.9948 31.6906 83.2656C31.6906 84.1615 31.8104 84.9635 32.05 85.6719C32.2896 86.3802 32.5969 86.9115 32.9719 87.2656C33.4406 87.7031 33.9719 87.9219 34.5656 87.9219C34.7635 87.9219 34.951 87.901 35.1281 87.8594C35.3156 87.8073 35.524 87.7708 35.7531 87.75C35.9302 87.7292 36.2792 87.5156 36.8 87.1094C37.3208 86.6927 37.8729 86.1042 38.4563 85.3438C39.05 84.5833 39.6073 83.7292 40.1281 82.7812C40.649 81.8333 41.0708 80.8802 41.3938 79.9219C41.4042 79.8177 41.4146 79.7135 41.425 79.6094C41.4354 79.4948 41.4458 79.3854 41.4563 79.2812ZM54.5531 84.7031C54.8552 85.7865 55.4385 86.6354 56.3031 87.25C57.1781 87.8646 58.2771 88.1719 59.6 88.1719C61.3708 88.1719 63.4281 87.5938 65.7719 86.4375C65.9177 86.3646 66.0688 86.3281 66.225 86.3281C66.4958 86.3281 66.7302 86.4219 66.9281 86.6094C67.1365 86.7969 67.2406 87.0312 67.2406 87.3125C67.2406 87.7604 67.0531 88.0781 66.6781 88.2656C65.4906 88.849 64.2823 89.3177 63.0531 89.6719C61.824 90.026 60.6365 90.2031 59.4906 90.2031C58.3135 90.2031 57.2146 89.9844 56.1938 89.5469C55.1833 89.1094 54.3188 88.3802 53.6 87.3594C53.1938 86.7865 52.8813 86.1771 52.6625 85.5312C52.4438 84.8854 52.3344 84.1615 52.3344 83.3594C52.3344 83.0052 52.3552 82.6354 52.3969 82.25C52.6365 80.2604 53.4646 78.5573 54.8813 77.1406C56.7146 75.3073 59.126 74.3906 62.1156 74.3906C63.2615 74.3906 64.2667 74.6146 65.1313 75.0625C65.9958 75.5 66.6104 76.125 66.975 76.9375C67.1729 77.3854 67.2719 77.8594 67.2719 78.3594C67.2719 79.2135 67.0479 79.9688 66.6 80.625C66.1625 81.2708 65.5375 81.8698 64.725 82.4219C62.4438 83.9635 59.1365 84.7344 54.8031 84.7344C54.7406 84.7344 54.6573 84.724 54.5531 84.7031ZM54.3813 82.7969C54.5271 82.7344 54.6677 82.7031 54.8031 82.7031C58.7302 82.7031 61.6625 82.0469 63.6 80.7344C64.1417 80.3698 64.5531 80 64.8344 79.625C65.1156 79.2396 65.2563 78.7969 65.2563 78.2969C65.2563 78.0052 65.1885 77.7708 65.0531 77.5938C64.9281 77.4167 64.7615 77.25 64.5531 77.0938C63.9698 76.6458 63.1625 76.4219 62.1313 76.4219C60.7458 76.4219 59.4854 76.6823 58.35 77.2031C57.2146 77.7135 56.2927 78.4479 55.5844 79.4062C54.8865 80.3542 54.4854 81.4844 54.3813 82.7969ZM68.7969 78.5625C68.7969 77.5938 69.0521 76.7812 69.5625 76.125C70.0729 75.4583 70.7344 74.9583 71.5469 74.625C72.3594 74.2917 73.224 74.125 74.1406 74.125C77.1198 74.125 79.6042 75.0729 81.5938 76.9688C81.8021 77.1667 81.9062 77.401 81.9062 77.6719C81.9062 77.9323 81.8125 78.1667 81.625 78.375C81.4479 78.5833 81.2135 78.6927 80.9219 78.7031C80.6302 78.7031 80.3906 78.6146 80.2031 78.4375C79.6094 77.8646 78.8073 77.3438 77.7969 76.875C76.7969 76.3958 75.776 76.1562 74.7344 76.1562C72.5885 76.1562 71.3229 76.7396 70.9375 77.9062C70.8542 78.1562 70.8125 78.3958 70.8125 78.625C70.8125 79.25 71.1042 79.8281 71.6875 80.3594C72.3333 80.9531 73.4167 81.25 74.9375 81.25C75.1875 81.25 75.4531 81.2396 75.7344 81.2188C76.0156 81.1979 76.2969 81.1875 76.5781 81.1875C77.9219 81.1875 79.0104 81.3906 79.8438 81.7969C80.6771 82.1927 81.3125 82.8281 81.75 83.7031C82.0312 84.2865 82.1719 84.8542 82.1719 85.4062C82.1719 85.6562 82.1458 85.9062 82.0938 86.1562C81.75 87.6771 80.8073 88.7865 79.2656 89.4844C78.2969 89.9323 77.2708 90.1562 76.1875 90.1562C75.9688 90.1562 75.7448 90.1458 75.5156 90.125C73.0469 89.8958 70.9948 89.0625 69.3594 87.625C69.1302 87.4271 69.0156 87.1719 69.0156 86.8594C69.0156 86.5781 69.1146 86.3438 69.3125 86.1562C69.5208 85.9583 69.7604 85.8594 70.0312 85.8594C70.2917 85.8594 70.5156 85.9375 70.7031 86.0938C71.4323 86.7292 72.2448 87.224 73.1406 87.5781C74.0365 87.9323 75.0625 88.1094 76.2188 88.1094C77.6667 88.1094 78.7708 87.6927 79.5312 86.8594C79.9479 86.401 80.1562 85.9323 80.1562 85.4531C80.1562 85.1719 80.0833 84.8854 79.9375 84.5938C79.4896 83.6771 78.5417 83.2188 77.0938 83.2188C76.7812 83.2188 76.4583 83.2292 76.125 83.25C75.7917 83.2604 75.4896 83.2656 75.2188 83.2656C73.9792 83.2656 73.0625 83.1875 72.4688 83.0312C71.6458 82.8125 70.9167 82.4115 70.2812 81.8281C69.6458 81.2448 69.2083 80.5469 68.9688 79.7344C68.8542 79.349 68.7969 78.9583 68.7969 78.5625ZM85.7281 83.9375C85.7281 85.2188 86.0979 86.2448 86.8375 87.0156C87.5875 87.7865 88.6552 88.1719 90.0406 88.1719C91.2385 88.1719 92.65 87.8802 94.275 87.2969C94.3896 87.2552 94.5094 87.2344 94.6344 87.2344C94.9052 87.2344 95.1396 87.3333 95.3375 87.5312C95.5458 87.7188 95.65 87.9479 95.65 88.2188C95.65 88.4583 95.5823 88.6667 95.4469 88.8438C95.3115 89.0208 95.15 89.1406 94.9625 89.2031C93.1083 89.8802 91.4625 90.2188 90.025 90.2188C88.4313 90.2188 87.124 89.8438 86.1031 89.0938C85.0823 88.3333 84.3948 87.3646 84.0406 86.1875C83.8115 85.4271 83.6969 84.6615 83.6969 83.8906C83.6969 82.8385 83.9052 81.7656 84.3219 80.6719C84.7073 79.651 85.2594 78.6875 85.9781 77.7812C86.7073 76.875 87.5875 76.1406 88.6188 75.5781C89.6604 75.0052 90.8323 74.7188 92.1344 74.7188C92.9885 74.7188 93.874 74.8594 94.7906 75.1406C95.0302 75.2135 95.2021 75.3385 95.3063 75.5156C95.4208 75.6823 95.4781 75.8646 95.4781 76.0625C95.4781 76.3229 95.3896 76.5677 95.2125 76.7969C95.0458 77.0156 94.8167 77.125 94.525 77.125C94.4208 77.125 94.3167 77.1094 94.2125 77.0781C93.5458 76.8802 92.8948 76.7812 92.2594 76.7812C91.2594 76.7812 90.3583 77 89.5563 77.4375C88.7646 77.8646 88.0875 78.4271 87.525 79.125C86.9625 79.8125 86.5302 80.5573 86.2281 81.3594C85.8948 82.2448 85.7281 83.1042 85.7281 83.9375ZM102.613 73.7969C105.206 73.9531 107.331 75.2344 108.988 77.6406C109.435 78.2865 109.779 79.0052 110.019 79.7969C110.258 80.5781 110.378 81.4479 110.378 82.4062C110.378 83.8333 110.04 85.1146 109.363 86.25C108.685 87.375 107.868 88.2448 106.909 88.8594C106.295 89.2552 105.602 89.5729 104.831 89.8125C104.06 90.0417 103.264 90.1562 102.441 90.1562C100.909 90.1562 99.6021 89.8229 98.5188 89.1562C97.4458 88.4792 96.5813 87.6406 95.925 86.6406C95.0396 85.2656 94.5969 83.7917 94.5969 82.2188C94.5969 81.8021 94.6281 81.3802 94.6906 80.9531C94.9823 78.8802 95.8521 77.1823 97.3 75.8594C98.7583 74.526 100.404 73.8229 102.238 73.75C102.363 73.7292 102.488 73.7448 102.613 73.7969ZM108.331 82.2969C108.331 81.0885 108.05 80.0104 107.488 79.0625C106.925 78.1042 106.196 77.3438 105.3 76.7812C104.415 76.2083 103.482 75.8906 102.503 75.8281C102.42 75.8281 102.336 75.8125 102.253 75.7812C101.191 75.8438 100.232 76.1719 99.3781 76.7656C98.524 77.349 97.8469 78.1198 97.3469 79.0781C96.8573 80.026 96.6125 81.0833 96.6125 82.25C96.6125 83.1458 96.7844 83.9583 97.1281 84.6875C97.4823 85.4167 97.9354 86.0417 98.4875 86.5625C99.05 87.0729 99.6333 87.4531 100.238 87.7031C100.967 87.9948 101.717 88.1406 102.488 88.1406C103.56 88.1406 104.534 87.8906 105.409 87.3906C106.295 86.8802 106.967 86.2656 107.425 85.5469C107.727 85.0677 107.951 84.5521 108.097 84C108.253 83.4375 108.331 82.8698 108.331 82.2969ZM113.497 67.0469C113.757 67.0469 113.986 67.1562 114.184 67.375C114.393 67.5833 114.486 67.8281 114.466 68.1094C114.289 72.4323 114.153 76.0938 114.059 79.0938C113.966 82.0938 113.919 84.4375 113.919 86.125C113.919 87.5938 113.955 88.5625 114.028 89.0312C114.039 89.0938 114.044 89.151 114.044 89.2031C114.044 89.5156 113.934 89.7552 113.716 89.9219C113.497 90.0885 113.257 90.1719 112.997 90.1719C112.778 90.1719 112.57 90.1042 112.372 89.9688C112.184 89.8333 112.07 89.6198 112.028 89.3281C111.945 88.7969 111.903 87.7083 111.903 86.0625C111.903 82.5625 112.085 76.5469 112.45 68.0156C112.46 67.7448 112.57 67.5156 112.778 67.3281C112.997 67.1406 113.236 67.0469 113.497 67.0469ZM129.819 79.1406C129.85 79.2552 129.866 79.375 129.866 79.5C129.866 79.7396 129.819 80.0156 129.725 80.3281C129.569 81.974 129.491 83.4427 129.491 84.7344C129.491 86.5365 129.642 88 129.944 89.125C129.975 89.2292 129.991 89.3281 129.991 89.4219C129.991 89.7135 129.876 89.9427 129.647 90.1094C129.428 90.2865 129.189 90.375 128.928 90.375C128.73 90.375 128.543 90.3177 128.366 90.2031C128.189 90.0885 128.064 89.901 127.991 89.6406C127.668 88.4427 127.496 86.9219 127.475 85.0781C126.485 86.6719 125.423 87.9271 124.287 88.8438C123.6 89.3958 122.892 89.7083 122.162 89.7812C121.725 89.9062 121.298 89.9688 120.881 89.9688C120.287 89.9688 119.746 89.8594 119.256 89.6406C118.767 89.4219 118.345 89.1458 117.991 88.8125C117.355 88.2188 116.86 87.4531 116.506 86.5156C116.162 85.5677 115.991 84.474 115.991 83.2344C115.991 81.6406 116.36 80.1198 117.1 78.6719C118.183 76.5469 119.829 75.1302 122.037 74.4219C122.881 74.1406 123.694 74 124.475 74C125.454 74 126.376 74.2292 127.241 74.6875C128.751 75.4896 129.61 76.974 129.819 79.1406ZM127.787 79.2812C127.694 78.2812 127.366 77.4896 126.803 76.9062C126.251 76.3229 125.496 76.0312 124.537 76.0312C123.965 76.0312 123.34 76.1406 122.662 76.3594C120.985 76.8906 119.761 77.9167 118.991 79.4375C118.345 80.7188 118.022 81.9948 118.022 83.2656C118.022 84.1615 118.142 84.9635 118.381 85.6719C118.621 86.3802 118.928 86.9115 119.303 87.2656C119.772 87.7031 120.303 87.9219 120.897 87.9219C121.095 87.9219 121.282 87.901 121.459 87.8594C121.647 87.8073 121.855 87.7708 122.084 87.75C122.261 87.7292 122.61 87.5156 123.131 87.1094C123.652 86.6927 124.204 86.1042 124.787 85.3438C125.381 84.5833 125.939 83.7292 126.459 82.7812C126.98 81.8333 127.402 80.8802 127.725 79.9219C127.735 79.8177 127.746 79.7135 127.756 79.6094C127.767 79.4948 127.777 79.3854 127.787 79.2812Z" fill="white"/>
</svg>
