<svg width="367" height="53" viewBox="0 0 367 53" fill="none" xmlns="http://www.w3.org/2000/svg">
<path d="M11.0379 20V12.845H15.8979C19.4619 12.845 21.5949 10.199 21.5949 7.04C21.5949 3.881 19.5159 1.1 15.8979 1.1H8.33789V20H11.0379ZM11.0379 10.685V3.314H15.3309C17.4909 3.314 18.7869 4.826 18.7869 7.013C18.7869 9.173 17.4909 10.685 15.3309 10.685H11.0379ZM27.054 6.5H24.435V20H27.054V14.897C27.054 9.173 29.592 8.714 30.483 8.714C30.996 8.714 31.482 8.822 31.914 9.065V6.5C31.509 6.311 31.185 6.203 30.672 6.203C28.971 6.203 27.513 7.391 27.054 9.551V6.5ZM33.0066 13.25C33.0066 17.165 36.1926 20.297 40.0806 20.297C43.9956 20.297 47.1816 17.138 47.1816 13.25C47.1816 9.362 43.9956 6.203 40.0806 6.203C36.1926 6.203 33.0066 9.362 33.0066 13.25ZM35.6256 13.277C35.6256 10.685 37.6236 8.525 40.0806 8.525C42.5646 8.525 44.5626 10.685 44.5626 13.277C44.5626 15.869 42.5646 17.975 40.0806 17.975C37.6236 17.975 35.6256 15.869 35.6256 13.277ZM63.5042 6.5H60.8852V8.66C59.5892 6.824 57.8342 6.203 55.9982 6.203C51.9482 6.203 49.3022 9.362 49.3022 13.25C49.3022 17.138 51.9482 20.297 55.9982 20.297C57.8342 20.297 59.5892 19.676 60.8852 17.84V19.649C60.8852 22.565 59.0762 24.05 56.4572 24.05C54.7292 24.05 53.1092 23.537 51.7322 22.349L50.6792 24.401C51.9752 25.454 53.6222 26.345 56.4572 26.345C60.1562 26.345 63.5042 24.374 63.5042 19.892V6.5ZM60.9392 13.25C60.9392 15.977 59.0492 17.975 56.3222 17.975C53.5142 17.975 51.9212 15.815 51.9212 13.25C51.9212 10.685 53.5142 8.525 56.3222 8.525C59.0492 8.525 60.9392 10.523 60.9392 13.25ZM70.2698 6.5H67.6508V20H70.2698V14.897C70.2698 9.173 72.8078 8.714 73.6988 8.714C74.2118 8.714 74.6978 8.822 75.1298 9.065V6.5C74.7248 6.311 74.4008 6.203 73.8878 6.203C72.1868 6.203 70.7288 7.391 70.2698 9.551V6.5ZM76.3022 13.25C76.3022 17.138 78.9482 20.297 82.9982 20.297C84.8342 20.297 86.5892 19.676 87.8852 17.84V20H90.5042V6.5H87.8852V8.66C86.5892 6.824 84.8342 6.203 82.9982 6.203C78.9482 6.203 76.3022 9.362 76.3022 13.25ZM87.9392 13.25C87.9392 15.977 86.0492 17.975 83.3222 17.975C80.5142 17.975 78.9212 15.815 78.9212 13.25C78.9212 10.685 80.5142 8.525 83.3222 8.525C86.0492 8.525 87.9392 10.523 87.9392 13.25ZM103.858 20H106.477V13.439C106.612 9.308 109.042 8.525 110.311 8.525C111.742 8.525 113.065 9.524 113.065 12.386V20H115.684V12.386C115.684 8.039 113.686 6.203 110.473 6.203C108.853 6.203 106.963 6.662 105.883 9.038C104.803 6.635 102.913 6.203 101.59 6.203C99.5648 6.203 97.8368 7.229 97.2698 9.2V6.5H94.6508V20H97.2698V13.736C97.2698 9.497 99.6998 8.525 101.104 8.525C102.535 8.525 103.858 9.524 103.858 12.386V20ZM118.648 13.25C118.648 17.138 121.294 20.297 125.344 20.297C127.18 20.297 128.935 19.676 130.231 17.84V20H132.85V6.5H130.231V8.66C128.935 6.824 127.18 6.203 125.344 6.203C121.294 6.203 118.648 9.362 118.648 13.25ZM130.285 13.25C130.285 15.977 128.395 17.975 125.668 17.975C122.86 17.975 121.267 15.815 121.267 13.25C121.267 10.685 122.86 8.525 125.668 8.525C128.395 8.525 130.285 10.523 130.285 13.25ZM147.383 1.1H144.683V20H147.383V1.1ZM161.693 20H164.312V12.386C164.312 8.039 162.044 6.203 159.128 6.203C156.887 6.203 155.159 7.256 154.592 9.2V6.5H151.973V20H154.592V13.736C154.592 9.497 157.535 8.525 158.939 8.525C160.37 8.525 161.693 9.524 161.693 12.386V20ZM171.377 8.552H175.67V6.5H171.377V2.612H169.352L168.758 6.5H166.544V8.552H168.758V15.734C168.758 19.19 170.837 20.297 172.97 20.297C175.589 20.297 176.966 18.812 176.966 16.868C176.966 16.679 176.966 16.517 176.939 16.328C176.912 16.031 176.831 15.707 176.723 15.41H174.428C174.617 15.815 174.644 16.328 174.644 16.517C174.644 17.516 173.834 18.002 172.997 18.002C172.106 18.002 171.377 17.435 171.377 15.923V8.552ZM190.464 16.274C189.141 17.408 187.683 17.975 186.036 17.975C183.039 17.975 180.933 16.085 181.014 13.493H192.543C192.543 8.498 189.222 6.203 185.658 6.203C181.446 6.203 178.395 9.335 178.395 13.304C178.395 17.111 181.311 20.297 186.009 20.297C188.034 20.297 190.194 19.73 191.922 17.786L190.464 16.274ZM185.712 8.498C187.197 8.498 189.114 9.011 189.843 11.468H181.257C182.121 9.119 184.146 8.498 185.712 8.498ZM198.098 6.5H195.479V20H198.098V14.897C198.098 9.173 200.636 8.714 201.527 8.714C202.04 8.714 202.526 8.822 202.958 9.065V6.5C202.553 6.311 202.229 6.203 201.716 6.203C200.015 6.203 198.557 7.391 198.098 9.551V6.5ZM208.067 20H205.448V6.5H208.067V20ZM204.935 2.153C204.935 3.206 205.691 3.962 206.744 3.962C207.797 3.962 208.58 3.206 208.58 2.153C208.58 1.1 207.797 0.316999 206.744 0.316999C205.691 0.316999 204.935 1.1 204.935 2.153ZM222.021 20H224.64V12.386C224.64 8.039 222.372 6.203 219.456 6.203C217.215 6.203 215.487 7.256 214.92 9.2V6.5H212.301V20H214.92V13.736C214.92 9.497 217.863 8.525 219.267 8.525C220.698 8.525 222.021 9.524 222.021 12.386V20ZM236.993 9.416C236.291 6.986 234.32 6.203 232.484 6.203C229.811 6.203 228.029 7.958 228.029 10.226C228.029 12.089 229.19 13.25 231.35 13.898L233.159 14.519C234.104 14.843 234.86 15.275 234.86 16.22C234.86 17.273 233.915 18.056 232.538 18.056C231.161 18.056 229.946 17.273 229.622 16.193L227.3 16.76C227.948 19.055 230.108 20.297 232.511 20.297C235.13 20.297 237.371 18.812 237.371 16.247C237.371 14.816 236.696 13.223 234.131 12.44L232.187 11.792C231.35 11.495 230.567 11.063 230.567 10.172C230.567 9.2 231.35 8.444 232.565 8.444C233.402 8.444 234.239 8.714 234.671 9.929L236.993 9.416ZM243.781 8.552H248.074V6.5H243.781V2.612H241.756L241.162 6.5H238.948V8.552H241.162V15.734C241.162 19.19 243.241 20.297 245.374 20.297C247.993 20.297 249.37 18.812 249.37 16.868C249.37 16.679 249.37 16.517 249.343 16.328C249.316 16.031 249.235 15.707 249.127 15.41H246.832C247.021 15.815 247.048 16.328 247.048 16.517C247.048 17.516 246.238 18.002 245.401 18.002C244.51 18.002 243.781 17.435 243.781 15.923V8.552ZM254.526 20H251.907V6.5H254.526V20ZM251.394 2.153C251.394 3.206 252.15 3.962 253.203 3.962C254.256 3.962 255.039 3.206 255.039 2.153C255.039 1.1 254.256 0.316999 253.203 0.316999C252.15 0.316999 251.394 1.1 251.394 2.153ZM262.027 8.552H266.32V6.5H262.027V2.612H260.002L259.408 6.5H257.194V8.552H259.408V15.734C259.408 19.19 261.487 20.297 263.62 20.297C266.239 20.297 267.616 18.812 267.616 16.868C267.616 16.679 267.616 16.517 267.589 16.328C267.562 16.031 267.481 15.707 267.373 15.41H265.078C265.267 15.815 265.294 16.328 265.294 16.517C265.294 17.516 264.484 18.002 263.647 18.002C262.756 18.002 262.027 17.435 262.027 15.923V8.552ZM272.475 6.5H269.856V14.114C269.856 18.461 272.124 20.297 275.04 20.297C277.281 20.297 279.009 19.244 279.576 17.3V20H282.195V6.5H279.576V12.764C279.576 17.003 276.633 17.975 275.229 17.975C273.798 17.975 272.475 16.976 272.475 14.114V6.5ZM285.341 13.412C285.341 17.219 288.149 20.297 292.928 20.297C294.143 20.297 295.925 20.027 297.761 18.65L296.519 16.868C295.088 17.948 293.414 17.975 293.036 17.975C290.12 17.975 287.96 16.031 287.96 13.25C287.96 10.469 290.12 8.525 293.036 8.525C293.414 8.525 295.088 8.552 296.519 9.632L297.761 7.85C295.925 6.473 294.143 6.203 292.928 6.203C288.041 6.203 285.341 9.443 285.341 13.412ZM303.305 20H300.686V6.5H303.305V20ZM300.173 2.153C300.173 3.206 300.929 3.962 301.982 3.962C303.035 3.962 303.818 3.206 303.818 2.153C303.818 1.1 303.035 0.316999 301.982 0.316999C300.929 0.316999 300.173 1.1 300.173 2.153ZM306.513 13.25C306.513 17.165 309.699 20.297 313.587 20.297C317.502 20.297 320.688 17.138 320.688 13.25C320.688 9.362 317.502 6.203 313.587 6.203C309.699 6.203 306.513 9.362 306.513 13.25ZM309.132 13.277C309.132 10.685 311.13 8.525 313.587 8.525C316.071 8.525 318.069 10.685 318.069 13.277C318.069 15.869 316.071 17.975 313.587 17.975C311.13 17.975 309.132 15.869 309.132 13.277ZM333.528 20H336.147V12.386C336.147 8.039 333.879 6.203 330.963 6.203C328.722 6.203 326.994 7.256 326.427 9.2V6.5H323.808V20H326.427V13.736C326.427 9.497 329.37 8.525 330.774 8.525C332.205 8.525 333.528 9.524 333.528 12.386V20ZM339.104 13.25C339.104 17.138 341.75 20.297 345.8 20.297C347.636 20.297 349.391 19.676 350.687 17.84V20H353.306V6.5H350.687V8.66C349.391 6.824 347.636 6.203 345.8 6.203C341.75 6.203 339.104 9.362 339.104 13.25ZM350.741 13.25C350.741 15.977 348.851 17.975 346.124 17.975C343.316 17.975 341.723 15.815 341.723 13.25C341.723 10.685 343.316 8.525 346.124 8.525C348.851 8.525 350.741 10.523 350.741 13.25ZM360.153 0.478999H357.534V20H360.153V0.478999ZM0.576238 45.25C0.576238 49.138 3.22224 52.297 7.27224 52.297C9.10824 52.297 10.8632 51.676 12.1592 49.84V52H14.7782V32.479H12.1592V40.66C10.8632 38.824 9.10824 38.203 7.27224 38.203C3.22224 38.203 0.576238 41.362 0.576238 45.25ZM12.2132 45.25C12.2132 47.977 10.3232 49.975 7.59624 49.975C4.78824 49.975 3.19524 47.815 3.19524 45.25C3.19524 42.685 4.78824 40.525 7.59624 40.525C10.3232 40.525 12.2132 42.523 12.2132 45.25ZM29.9672 48.274C28.6442 49.408 27.1862 49.975 25.5392 49.975C22.5422 49.975 20.4362 48.085 20.5172 45.493H32.0462C32.0462 40.498 28.7252 38.203 25.1612 38.203C20.9492 38.203 17.8982 41.335 17.8982 45.304C17.8982 49.111 20.8142 52.297 25.5122 52.297C27.5372 52.297 29.6972 51.73 31.4252 49.786L29.9672 48.274ZM25.2152 40.498C26.7002 40.498 28.6172 41.011 29.3462 43.468H20.7602C21.6242 41.119 23.6492 40.498 25.2152 40.498ZM41.264 42.55C41.264 47.815 45.044 52.297 51.47 52.297C54.251 52.297 56.087 51.487 57.707 50.272L56.654 48.247C55.385 49.192 53.414 49.867 51.47 49.867C46.745 49.867 44.018 46.546 44.018 42.55C44.018 38.554 46.745 35.233 51.47 35.233C53.414 35.233 55.385 35.908 56.654 36.853L57.707 34.828C56.087 33.613 54.251 32.803 51.47 32.803C45.044 32.803 41.264 37.285 41.264 42.55ZM63.2316 52H60.6126V38.5H63.2316V52ZM60.0996 34.153C60.0996 35.206 60.8556 35.962 61.9086 35.962C62.9616 35.962 63.7446 35.206 63.7446 34.153C63.7446 33.1 62.9616 32.317 61.9086 32.317C60.8556 32.317 60.0996 33.1 60.0996 34.153ZM78.5092 48.274C77.1862 49.408 75.7282 49.975 74.0812 49.975C71.0842 49.975 68.9782 48.085 69.0592 45.493H80.5882C80.5882 40.498 77.2672 38.203 73.7032 38.203C69.4912 38.203 66.4402 41.335 66.4402 45.304C66.4402 49.111 69.3562 52.297 74.0542 52.297C76.0792 52.297 78.2392 51.73 79.9672 49.786L78.5092 48.274ZM73.7572 40.498C75.2422 40.498 77.1592 41.011 77.8882 43.468H69.3022C70.1662 41.119 72.1912 40.498 73.7572 40.498ZM72.0562 32.479L68.8702 36.529H70.9222L73.4332 34.045L75.9442 36.529H77.9962L74.8102 32.479H72.0562ZM93.2438 52H95.8628V44.386C95.8628 40.039 93.5948 38.203 90.6788 38.203C88.4378 38.203 86.7098 39.256 86.1428 41.2V38.5H83.5238V52H86.1428V45.736C86.1428 41.497 89.0858 40.525 90.4898 40.525C91.9208 40.525 93.2438 41.524 93.2438 44.386V52ZM98.8197 45.412C98.8197 49.219 101.628 52.297 106.407 52.297C107.622 52.297 109.404 52.027 111.24 50.65L109.998 48.868C108.567 49.948 106.893 49.975 106.515 49.975C103.599 49.975 101.439 48.031 101.439 45.25C101.439 42.469 103.599 40.525 106.515 40.525C106.893 40.525 108.567 40.552 109.998 41.632L111.24 39.85C109.404 38.473 107.622 38.203 106.407 38.203C101.52 38.203 98.8197 41.443 98.8197 45.412ZM116.783 52H114.164V38.5H116.783V52ZM113.651 34.153C113.651 35.206 114.407 35.962 115.46 35.962C116.513 35.962 117.296 35.206 117.296 34.153C117.296 33.1 116.513 32.317 115.46 32.317C114.407 32.317 113.651 33.1 113.651 34.153ZM120.019 45.25C120.019 49.138 122.665 52.297 126.715 52.297C128.551 52.297 130.306 51.676 131.602 49.84V52H134.221V38.5H131.602V40.66C130.306 38.824 128.551 38.203 126.715 38.203C122.665 38.203 120.019 41.362 120.019 45.25ZM131.656 45.25C131.656 47.977 129.766 49.975 127.039 49.975C124.231 49.975 122.638 47.815 122.638 45.25C122.638 42.685 124.231 40.525 127.039 40.525C129.766 40.525 131.656 42.523 131.656 45.25ZM144.65 42.55C144.65 47.815 148.43 52.297 154.856 52.297C157.637 52.297 159.473 51.487 161.093 50.272L160.04 48.247C158.771 49.192 156.8 49.867 154.856 49.867C150.131 49.867 147.404 46.546 147.404 42.55C147.404 38.554 150.131 35.233 154.856 35.233C156.8 35.233 158.771 35.908 160.04 36.853L161.093 34.828C159.473 33.613 157.637 32.803 154.856 32.803C148.43 32.803 144.65 37.285 144.65 42.55ZM166.617 52H163.998V38.5H166.617V52ZM163.485 34.153C163.485 35.206 164.241 35.962 165.294 35.962C166.347 35.962 167.13 35.206 167.13 34.153C167.13 33.1 166.347 32.317 165.294 32.317C164.241 32.317 163.485 33.1 163.485 34.153ZM169.88 45.25C169.88 49.138 172.526 52.297 176.576 52.297C178.412 52.297 180.167 51.676 181.463 49.84V52H184.082V32.479H181.463V40.66C180.167 38.824 178.412 38.203 176.576 38.203C172.526 38.203 169.88 41.362 169.88 45.25ZM181.517 45.25C181.517 47.977 179.627 49.975 176.9 49.975C174.092 49.975 172.499 47.815 172.499 45.25C172.499 42.685 174.092 40.525 176.9 40.525C179.627 40.525 181.517 42.523 181.517 45.25ZM187.229 45.25C187.229 49.138 189.875 52.297 193.925 52.297C195.761 52.297 197.516 51.676 198.812 49.84V52H201.431V38.5H198.812V40.66C197.516 38.824 195.761 38.203 193.925 38.203C189.875 38.203 187.229 41.362 187.229 45.25ZM198.866 45.25C198.866 47.977 196.976 49.975 194.249 49.975C191.441 49.975 189.848 47.815 189.848 45.25C189.848 42.685 191.441 40.525 194.249 40.525C196.976 40.525 198.866 42.523 198.866 45.25ZM204.606 45.25C204.606 49.138 207.252 52.297 211.302 52.297C213.138 52.297 214.893 51.676 216.189 49.84V52H218.808V32.479H216.189V40.66C214.893 38.824 213.138 38.203 211.302 38.203C207.252 38.203 204.606 41.362 204.606 45.25ZM216.243 45.25C216.243 47.977 214.353 49.975 211.626 49.975C208.818 49.975 207.225 47.815 207.225 45.25C207.225 42.685 208.818 40.525 211.626 40.525C214.353 40.525 216.243 42.523 216.243 45.25ZM233.457 33.127L232.269 32.776C231.864 33.748 231.621 34.099 230.973 34.099C230.109 34.099 228.759 33.019 227.598 33.019C226.41 33.019 225.735 33.802 225.222 35.827L226.41 36.178C226.815 35.206 227.058 34.855 227.706 34.855C228.57 34.855 229.92 35.935 231.081 35.935C232.269 35.935 232.944 35.152 233.457 33.127ZM221.955 45.25C221.955 41.362 224.601 38.203 228.651 38.203C230.487 38.203 232.242 38.824 233.538 40.66V38.5H236.157V52H233.538V49.84C232.242 51.676 230.487 52.297 228.651 52.297C224.601 52.297 221.955 49.138 221.955 45.25ZM233.592 45.25C233.592 42.523 231.702 40.525 228.975 40.525C226.167 40.525 224.574 42.685 224.574 45.25C224.574 47.815 226.167 49.975 228.975 49.975C231.702 49.975 233.592 47.977 233.592 45.25ZM257.142 52H259.761V44.386C259.761 40.039 257.493 38.203 254.577 38.203C252.336 38.203 250.608 39.256 250.041 41.2V38.5H247.422V52H250.041V45.736C250.041 41.497 252.984 40.525 254.388 40.525C255.819 40.525 257.142 41.524 257.142 44.386V52ZM262.718 45.25C262.718 49.138 265.364 52.297 269.414 52.297C271.25 52.297 273.005 51.676 274.301 49.84V52H276.92V38.5H274.301V40.66C273.005 38.824 271.25 38.203 269.414 38.203C265.364 38.203 262.718 41.362 262.718 45.25ZM274.355 45.25C274.355 47.977 272.465 49.975 269.738 49.975C266.93 49.975 265.337 47.815 265.337 45.25C265.337 42.685 266.93 40.525 269.738 40.525C272.465 40.525 274.355 42.523 274.355 45.25ZM300.768 49.786H291.453V43.846H299.58V41.632H291.453V35.314H300.768V33.1H288.753V52H300.768V49.786ZM312.561 41.416C311.859 38.986 309.888 38.203 308.052 38.203C305.379 38.203 303.597 39.958 303.597 42.226C303.597 44.089 304.758 45.25 306.918 45.898L308.727 46.519C309.672 46.843 310.428 47.275 310.428 48.22C310.428 49.273 309.483 50.056 308.106 50.056C306.729 50.056 305.514 49.273 305.19 48.193L302.868 48.76C303.516 51.055 305.676 52.297 308.079 52.297C310.698 52.297 312.939 50.812 312.939 48.247C312.939 46.816 312.264 45.223 309.699 44.44L307.755 43.792C306.918 43.495 306.135 43.063 306.135 42.172C306.135 41.2 306.918 40.444 308.133 40.444C308.97 40.444 309.807 40.714 310.239 41.929L312.561 41.416ZM315.083 45.412C315.083 49.219 317.891 52.297 322.67 52.297C323.885 52.297 325.667 52.027 327.503 50.65L326.261 48.868C324.83 49.948 323.156 49.975 322.778 49.975C319.862 49.975 317.702 48.031 317.702 45.25C317.702 42.469 319.862 40.525 322.778 40.525C323.156 40.525 324.83 40.552 326.261 41.632L327.503 39.85C325.667 38.473 323.885 38.203 322.67 38.203C317.783 38.203 315.083 41.443 315.083 45.412ZM329.031 45.25C329.031 49.165 332.217 52.297 336.105 52.297C340.02 52.297 343.206 49.138 343.206 45.25C343.206 41.362 340.02 38.203 336.105 38.203C332.217 38.203 329.031 41.362 329.031 45.25ZM331.65 45.277C331.65 42.685 333.648 40.525 336.105 40.525C338.589 40.525 340.587 42.685 340.587 45.277C340.587 47.869 338.589 49.975 336.105 49.975C333.648 49.975 331.65 47.869 331.65 45.277ZM349.026 32.479H346.407V52H349.026V32.479ZM352.261 45.25C352.261 49.138 354.907 52.297 358.957 52.297C360.793 52.297 362.548 51.676 363.844 49.84V52H366.463V38.5H363.844V40.66C362.548 38.824 360.793 38.203 358.957 38.203C354.907 38.203 352.261 41.362 352.261 45.25ZM363.898 45.25C363.898 47.977 362.008 49.975 359.281 49.975C356.473 49.975 354.88 47.815 354.88 45.25C354.88 42.685 356.473 40.525 359.281 40.525C362.008 40.525 363.898 42.523 363.898 45.25Z" fill="white"/>
</svg>
