<svg width="478" height="240" viewBox="0 0 478 240" fill="none" xmlns="http://www.w3.org/2000/svg">
<path d="M101.706 120C101.706 135.6 113.466 148.88 132.426 148.88C141.146 148.88 146.826 146.08 152.506 141.84L147.386 132.4C143.306 135.52 138.906 137.84 132.506 137.84C121.146 137.84 114.266 129.92 114.266 120C114.266 110.08 121.146 102.16 132.506 102.16C138.906 102.16 143.306 104.48 147.386 107.6L152.506 98.16C146.826 93.92 141.146 91.12 132.426 91.12C113.466 91.12 101.706 104.4 101.706 120ZM167.333 148V106.96H155.413V148H167.333ZM153.973 96.08C153.973 100 157.093 102.72 161.493 102.72C165.733 102.72 169.093 100 169.093 96.08C169.093 92 165.733 89.28 161.493 89.28C157.093 89.28 153.973 92 153.973 96.08ZM183.273 127.36C183.273 121.04 186.953 115.76 193.513 115.76C199.993 115.76 204.553 120.32 204.553 128C204.553 135.36 199.673 139.2 193.833 139.2C187.193 139.2 183.273 134 183.273 127.36ZM204.233 90.16V112.56C201.433 108.8 196.633 106.08 191.113 106.08C178.313 106.08 171.353 115.76 171.353 127.28C171.353 139.28 178.873 148.88 191.353 148.88C197.433 148.88 201.273 146.24 204.233 142V148H216.153V90.16H204.233ZM232.007 127.36C232.007 121.04 235.687 115.76 242.247 115.76C248.727 115.76 253.287 120.32 253.287 128C253.287 135.36 248.407 139.2 242.567 139.2C235.927 139.2 232.007 134 232.007 127.36ZM252.967 106.96V112.56C250.167 108.8 245.367 106.08 239.847 106.08C227.047 106.08 220.087 115.76 220.087 127.28C220.087 139.28 227.607 148.88 240.087 148.88C246.167 148.88 250.007 146.24 252.967 142V148H264.887V106.96H252.967ZM280.663 127.36C280.663 121.04 284.343 115.76 290.903 115.76C297.383 115.76 301.943 120.32 301.943 128C301.943 135.36 297.063 139.2 291.223 139.2C284.583 139.2 280.663 134 280.663 127.36ZM301.623 90.16V112.56C298.823 108.8 294.023 106.08 288.503 106.08C275.703 106.08 268.743 115.76 268.743 127.28C268.743 139.28 276.263 148.88 288.743 148.88C294.823 148.88 298.663 146.24 301.623 142V148H313.543V90.16H301.623ZM329.398 127.36C329.398 121.04 333.078 115.76 339.638 115.76C346.118 115.76 350.678 120.32 350.678 128C350.678 135.36 345.798 139.2 339.958 139.2C333.318 139.2 329.398 134 329.398 127.36ZM350.358 106.96V112.56C347.558 108.8 342.758 106.08 337.238 106.08C324.438 106.08 317.478 115.76 317.478 127.28C317.478 139.28 324.998 148.88 337.478 148.88C343.558 148.88 347.398 146.24 350.358 142V148H362.278V106.96H350.358ZM350.198 88.96C349.158 91.2 348.278 92.4 345.958 92.4C343.318 92.4 339.398 89.68 334.838 89.68C329.638 89.68 327.318 93.44 325.638 99.44L331.638 101.2C332.678 98.96 333.558 97.76 335.878 97.76C338.518 97.76 342.438 100.48 346.998 100.48C352.198 100.48 354.518 96.72 356.198 90.72L350.198 88.96Z" fill="#666666"/>
<path d="M99.7684 46C99.7684 61.6 111.528 74.88 130.488 74.88C139.208 74.88 144.888 72.08 150.568 67.84L145.448 58.4C141.368 61.52 136.968 63.84 130.568 63.84C119.208 63.84 112.328 55.92 112.328 46C112.328 36.08 119.208 28.16 130.568 28.16C136.968 28.16 141.368 30.48 145.448 33.6L150.568 24.16C144.888 19.92 139.208 17.12 130.488 17.12C111.528 17.12 99.7684 30.4 99.7684 46ZM165.395 74V32.96H153.475V74H165.395ZM152.035 22.08C152.035 26 155.155 28.72 159.555 28.72C163.795 28.72 167.155 26 167.155 22.08C167.155 18 163.795 15.28 159.555 15.28C155.155 15.28 152.035 18 152.035 22.08ZM191.735 41.76C195.735 41.76 201.095 43.76 201.895 49.04H181.335C182.855 43.52 187.895 41.76 191.735 41.76ZM205.015 60.24C202.135 63.04 197.895 65.12 193.655 65.12C185.975 65.12 181.335 61.36 181.095 56.24H214.135C214.135 39.92 203.175 32.08 191.895 32.08C178.695 32.08 169.255 41.6 169.255 53.68C169.255 65.36 177.575 74.88 192.775 74.88C198.295 74.88 206.135 73.2 211.895 66.8L205.015 60.24ZM185.575 14L177.175 27.84H185.575L191.495 20.48L197.415 27.84H205.815L197.335 14H185.575ZM217.112 74H229.032V52C229.032 46.32 231.352 41.92 236.872 41.92C242.392 41.92 244.472 46.24 244.472 51.92V74H256.392V51.68C256.392 41.2 253.272 32.08 241.752 32.08C236.712 32.08 232.472 33.76 229.032 38.56V32.96H217.112V74ZM259.615 53.44C259.615 65.6 268.495 74.8 282.575 74.8C286.815 74.8 292.335 73.92 299.375 68.72L293.935 60C289.935 63.6 285.215 64.08 283.135 64.08C276.095 64.08 271.535 59.76 271.535 53.44C271.535 47.12 276.095 42.8 283.135 42.8C285.215 42.8 289.935 43.28 293.935 46.88L299.375 38.16C292.335 32.96 286.815 32.08 282.575 32.08C268.495 32.08 259.615 41.28 259.615 53.44ZM314.395 74V32.96H302.475V74H314.395ZM301.035 22.08C301.035 26 304.155 28.72 308.555 28.72C312.795 28.72 316.155 26 316.155 22.08C316.155 18 312.795 15.28 308.555 15.28C304.155 15.28 301.035 18 301.035 22.08ZM330.335 53.36C330.335 47.04 334.015 41.76 340.575 41.76C347.055 41.76 351.615 46.32 351.615 54C351.615 61.36 346.735 65.2 340.895 65.2C334.255 65.2 330.335 60 330.335 53.36ZM351.295 32.96V38.56C348.495 34.8 343.695 32.08 338.175 32.08C325.375 32.08 318.415 41.76 318.415 53.28C318.415 65.28 325.935 74.88 338.415 74.88C344.495 74.88 348.335 72.24 351.295 68V74H363.215V32.96H351.295Z" fill="#666666"/>
<path d="M71.2138 218H83.1338V196C83.1338 190.32 85.4538 185.92 90.9738 185.92C96.4938 185.92 98.5738 190.24 98.5738 195.92V218H110.494V195.68C110.494 185.2 107.374 176.08 95.8538 176.08C90.8138 176.08 86.5738 177.76 83.1338 182.56V176.96H71.2138V218ZM125.796 197.36C125.796 191.04 129.476 185.76 136.036 185.76C142.516 185.76 147.076 190.32 147.076 198C147.076 205.36 142.196 209.2 136.356 209.2C129.716 209.2 125.796 204 125.796 197.36ZM146.756 176.96V182.56C143.956 178.8 139.156 176.08 133.636 176.08C120.836 176.08 113.876 185.76 113.876 197.28C113.876 209.28 121.396 218.88 133.876 218.88C139.956 218.88 143.796 216.24 146.756 212V218H158.676V176.96H146.756ZM200.384 185.76C204.384 185.76 209.744 187.76 210.544 193.04H189.984C191.504 187.52 196.544 185.76 200.384 185.76ZM213.664 204.24C210.784 207.04 206.544 209.12 202.304 209.12C194.624 209.12 189.984 205.36 189.744 200.24H222.784C222.784 183.92 211.824 176.08 200.544 176.08C187.344 176.08 177.904 185.6 177.904 197.68C177.904 209.36 186.224 218.88 201.424 218.88C206.944 218.88 214.784 217.2 220.544 210.8L213.664 204.24ZM222.561 208.4C225.361 216.96 233.681 218.88 239.761 218.88C248.801 218.88 256.561 214.56 256.561 206.16C256.561 203.44 255.681 197.12 246.001 194.32L239.841 191.92C237.681 191.04 236.001 190.24 236.001 188.4C236.001 186.24 238.321 185.04 240.561 185.04C242.481 185.04 245.281 185.68 246.401 188.96L255.601 184.72C251.761 177.28 245.441 176.08 240.801 176.08C232.081 176.08 224.721 180.4 224.721 188.64C224.721 190.48 225.201 197.04 234.961 200.4L242.161 203.44C244.401 204.32 245.201 205.2 245.201 206.56C245.201 208.72 242.481 209.68 239.841 209.68C236.481 209.68 232.481 208.24 231.201 203.52L222.561 208.4ZM257.716 197.44C257.716 209.6 266.596 218.8 280.676 218.8C284.916 218.8 290.436 217.92 297.476 212.72L292.036 204C288.036 207.6 283.316 208.08 281.236 208.08C274.196 208.08 269.636 203.76 269.636 197.44C269.636 191.12 274.196 186.8 281.236 186.8C283.316 186.8 288.036 187.28 292.036 190.88L297.476 182.16C290.436 176.96 284.916 176.08 280.676 176.08C266.596 176.08 257.716 185.28 257.716 197.44ZM297.076 197.44C297.076 210.32 307.716 218.88 319.636 218.88C331.556 218.88 342.196 210.24 342.196 197.44C342.196 184.72 331.556 176.08 319.636 176.08C307.716 176.08 297.076 184.64 297.076 197.44ZM308.676 197.44C308.676 191.04 313.796 186.32 319.636 186.32C325.636 186.32 330.596 191.12 330.596 197.44C330.596 203.84 325.636 208.64 319.636 208.64C313.796 208.64 308.676 203.92 308.676 197.44ZM357.95 218V160.16H346.03V218H357.95ZM373.89 197.36C373.89 191.04 377.57 185.76 384.13 185.76C390.61 185.76 395.17 190.32 395.17 198C395.17 205.36 390.29 209.2 384.45 209.2C377.81 209.2 373.89 204 373.89 197.36ZM394.85 176.96V182.56C392.05 178.8 387.25 176.08 381.73 176.08C368.93 176.08 361.97 185.76 361.97 197.28C361.97 209.28 369.49 218.88 381.97 218.88C388.05 218.88 391.89 216.24 394.85 212V218H406.77V176.96H394.85Z" fill="#666666"/>
</svg>
